<mxfile host="app.diagrams.net" agent="Mozilla/5.0 (Windows NT 10.0; Win64; x64) AppleWebKit/537.36 (KHTML, like Gecko) Chrome/132.0.0.0 Safari/537.36" version="26.0.6">
  <diagram name="Page-1" id="j8hmPUcapiiLyQV7xwrz">
    <mxGraphModel dx="2176" dy="669" grid="0" gridSize="10" guides="1" tooltips="1" connect="1" arrows="1" fold="1" page="0" pageScale="1" pageWidth="850" pageHeight="1100" math="0" shadow="0">
      <root>
        <mxCell id="0" />
        <mxCell id="1" parent="0" />
        <mxCell id="AXf8cBm9GZdWseRldWIK-2" value="Input" style="swimlane;whiteSpace=wrap;html=1;fillColor=#d5e8d4;strokeColor=#82b366;fontSize=15;" parent="1" vertex="1">
          <mxGeometry x="-80" y="70" width="310" height="580" as="geometry" />
        </mxCell>
        <mxCell id="AXf8cBm9GZdWseRldWIK-1" value="SemesterId&lt;div&gt;StudentId&lt;/div&gt;&lt;div&gt;StudentEnrollmentCourseSectionId&lt;/div&gt;&lt;div&gt;Score&lt;/div&gt;&lt;div&gt;ScoreType&lt;/div&gt;" style="rounded=1;whiteSpace=wrap;html=1;align=left;spacingLeft=7;fontSize=13;" parent="AXf8cBm9GZdWseRldWIK-2" vertex="1">
          <mxGeometry x="30" y="220" width="220" height="90" as="geometry" />
        </mxCell>
        <mxCell id="AXf8cBm9GZdWseRldWIK-7" value="Process" style="swimlane;whiteSpace=wrap;html=1;fillColor=#f8cecc;strokeColor=#b85450;fontSize=15;" parent="1" vertex="1">
          <mxGeometry x="230" y="70" width="1130" height="580" as="geometry" />
        </mxCell>
        <mxCell id="AXf8cBm9GZdWseRldWIK-11" value="" style="rounded=1;whiteSpace=wrap;html=1;fillColor=#e1d5e7;strokeColor=#9673a6;fontSize=15;" parent="AXf8cBm9GZdWseRldWIK-7" vertex="1">
          <mxGeometry x="30" y="50" width="500" height="180" as="geometry" />
        </mxCell>
        <mxCell id="AXf8cBm9GZdWseRldWIK-12" value="Validate data" style="rounded=1;whiteSpace=wrap;html=1;fontSize=15;" parent="AXf8cBm9GZdWseRldWIK-7" vertex="1">
          <mxGeometry x="50" y="107.5" width="120" height="60" as="geometry" />
        </mxCell>
        <mxCell id="AXf8cBm9GZdWseRldWIK-13" value="" style="rounded=1;whiteSpace=wrap;html=1;fillColor=#fff2cc;strokeColor=#d6b656;fontSize=15;" parent="AXf8cBm9GZdWseRldWIK-7" vertex="1">
          <mxGeometry x="570" y="50" width="535" height="180" as="geometry" />
        </mxCell>
        <mxCell id="AXf8cBm9GZdWseRldWIK-25" style="edgeStyle=orthogonalEdgeStyle;rounded=0;orthogonalLoop=1;jettySize=auto;html=1;exitX=1;exitY=0.5;exitDx=0;exitDy=0;entryX=0;entryY=0.5;entryDx=0;entryDy=0;fontSize=15;" parent="AXf8cBm9GZdWseRldWIK-7" source="AXf8cBm9GZdWseRldWIK-14" target="AXf8cBm9GZdWseRldWIK-22" edge="1">
          <mxGeometry relative="1" as="geometry" />
        </mxCell>
        <mxCell id="AXf8cBm9GZdWseRldWIK-14" value="Recive transaction" style="rounded=1;whiteSpace=wrap;html=1;fontSize=15;" parent="AXf8cBm9GZdWseRldWIK-7" vertex="1">
          <mxGeometry x="600" y="107.5" width="120" height="60" as="geometry" />
        </mxCell>
        <mxCell id="knNs5Az-_bWUm5ND8zl--7" style="edgeStyle=orthogonalEdgeStyle;rounded=0;orthogonalLoop=1;jettySize=auto;html=1;exitX=1;exitY=0.5;exitDx=0;exitDy=0;fontSize=15;" parent="AXf8cBm9GZdWseRldWIK-7" source="AXf8cBm9GZdWseRldWIK-15" target="knNs5Az-_bWUm5ND8zl--5" edge="1">
          <mxGeometry relative="1" as="geometry" />
        </mxCell>
        <mxCell id="AXf8cBm9GZdWseRldWIK-15" value="Create transaction" style="rounded=1;whiteSpace=wrap;html=1;fontSize=15;" parent="AXf8cBm9GZdWseRldWIK-7" vertex="1">
          <mxGeometry x="220" y="107.5" width="120" height="60" as="geometry" />
        </mxCell>
        <mxCell id="AXf8cBm9GZdWseRldWIK-16" value="" style="endArrow=classic;html=1;rounded=0;exitX=1;exitY=0.5;exitDx=0;exitDy=0;entryX=0;entryY=0.5;entryDx=0;entryDy=0;fontSize=15;" parent="AXf8cBm9GZdWseRldWIK-7" source="AXf8cBm9GZdWseRldWIK-12" target="AXf8cBm9GZdWseRldWIK-15" edge="1">
          <mxGeometry width="50" height="50" relative="1" as="geometry">
            <mxPoint x="330" y="210" as="sourcePoint" />
            <mxPoint x="380" y="160" as="targetPoint" />
          </mxGeometry>
        </mxCell>
        <mxCell id="AXf8cBm9GZdWseRldWIK-26" style="edgeStyle=orthogonalEdgeStyle;rounded=0;orthogonalLoop=1;jettySize=auto;html=1;exitX=1;exitY=0.5;exitDx=0;exitDy=0;fontSize=15;" parent="AXf8cBm9GZdWseRldWIK-7" source="AXf8cBm9GZdWseRldWIK-22" target="AXf8cBm9GZdWseRldWIK-24" edge="1">
          <mxGeometry relative="1" as="geometry" />
        </mxCell>
        <mxCell id="AXf8cBm9GZdWseRldWIK-22" value="Add transaction to mempool" style="rounded=1;whiteSpace=wrap;html=1;fontSize=15;" parent="AXf8cBm9GZdWseRldWIK-7" vertex="1">
          <mxGeometry x="759" y="107.5" width="141" height="60" as="geometry" />
        </mxCell>
        <mxCell id="AXf8cBm9GZdWseRldWIK-24" value="return transaction hash" style="rounded=1;whiteSpace=wrap;html=1;fontSize=15;" parent="AXf8cBm9GZdWseRldWIK-7" vertex="1">
          <mxGeometry x="937" y="107.5" width="143" height="60" as="geometry" />
        </mxCell>
        <mxCell id="AXf8cBm9GZdWseRldWIK-27" value="" style="rounded=1;whiteSpace=wrap;html=1;fillColor=#f8cecc;strokeColor=#b85450;fontSize=15;" parent="AXf8cBm9GZdWseRldWIK-7" vertex="1">
          <mxGeometry x="30" y="280" width="1070" height="270" as="geometry" />
        </mxCell>
        <mxCell id="AXf8cBm9GZdWseRldWIK-35" style="edgeStyle=orthogonalEdgeStyle;rounded=0;orthogonalLoop=1;jettySize=auto;html=1;exitX=1;exitY=0.5;exitDx=0;exitDy=0;fontSize=15;" parent="AXf8cBm9GZdWseRldWIK-7" source="AXf8cBm9GZdWseRldWIK-28" target="AXf8cBm9GZdWseRldWIK-29" edge="1">
          <mxGeometry relative="1" as="geometry" />
        </mxCell>
        <mxCell id="AXf8cBm9GZdWseRldWIK-28" value="Validate data" style="rounded=1;whiteSpace=wrap;html=1;fontSize=15;" parent="AXf8cBm9GZdWseRldWIK-7" vertex="1">
          <mxGeometry x="50" y="325" width="120" height="60" as="geometry" />
        </mxCell>
        <mxCell id="knNs5Az-_bWUm5ND8zl--10" style="edgeStyle=orthogonalEdgeStyle;rounded=0;orthogonalLoop=1;jettySize=auto;html=1;exitX=0.5;exitY=1;exitDx=0;exitDy=0;entryX=0.5;entryY=0;entryDx=0;entryDy=0;fontSize=15;" parent="AXf8cBm9GZdWseRldWIK-7" source="AXf8cBm9GZdWseRldWIK-29" target="knNs5Az-_bWUm5ND8zl--9" edge="1">
          <mxGeometry relative="1" as="geometry" />
        </mxCell>
        <mxCell id="AXf8cBm9GZdWseRldWIK-29" value="Store data to database" style="rounded=1;whiteSpace=wrap;html=1;fontSize=15;" parent="AXf8cBm9GZdWseRldWIK-7" vertex="1">
          <mxGeometry x="210.5" y="325" width="139" height="60" as="geometry" />
        </mxCell>
        <mxCell id="AXf8cBm9GZdWseRldWIK-49" style="edgeStyle=orthogonalEdgeStyle;rounded=0;orthogonalLoop=1;jettySize=auto;html=1;exitX=1;exitY=0.5;exitDx=0;exitDy=0;fontSize=15;" parent="AXf8cBm9GZdWseRldWIK-7" source="AXf8cBm9GZdWseRldWIK-40" target="AXf8cBm9GZdWseRldWIK-43" edge="1">
          <mxGeometry relative="1" as="geometry" />
        </mxCell>
        <mxCell id="AXf8cBm9GZdWseRldWIK-40" value="listen for transaction status" style="rounded=1;whiteSpace=wrap;html=1;fontSize=15;" parent="AXf8cBm9GZdWseRldWIK-7" vertex="1">
          <mxGeometry x="390" y="325" width="160" height="60" as="geometry" />
        </mxCell>
        <mxCell id="AXf8cBm9GZdWseRldWIK-50" style="edgeStyle=orthogonalEdgeStyle;rounded=0;orthogonalLoop=1;jettySize=auto;html=1;exitX=1;exitY=0.5;exitDx=0;exitDy=0;fontSize=15;" parent="AXf8cBm9GZdWseRldWIK-7" source="AXf8cBm9GZdWseRldWIK-43" target="AXf8cBm9GZdWseRldWIK-48" edge="1">
          <mxGeometry relative="1" as="geometry" />
        </mxCell>
        <mxCell id="AXf8cBm9GZdWseRldWIK-51" value="No" style="edgeLabel;html=1;align=center;verticalAlign=middle;resizable=0;points=[];fontSize=15;" parent="AXf8cBm9GZdWseRldWIK-50" vertex="1" connectable="0">
          <mxGeometry x="-0.1667" y="1" relative="1" as="geometry">
            <mxPoint as="offset" />
          </mxGeometry>
        </mxCell>
        <mxCell id="knNs5Az-_bWUm5ND8zl--76" style="edgeStyle=orthogonalEdgeStyle;rounded=0;orthogonalLoop=1;jettySize=auto;html=1;exitX=0.5;exitY=1;exitDx=0;exitDy=0;entryX=0;entryY=0.5;entryDx=0;entryDy=0;fontSize=15;" parent="AXf8cBm9GZdWseRldWIK-7" source="AXf8cBm9GZdWseRldWIK-43" target="knNs5Az-_bWUm5ND8zl--75" edge="1">
          <mxGeometry relative="1" as="geometry" />
        </mxCell>
        <mxCell id="knNs5Az-_bWUm5ND8zl--77" value="Yes" style="edgeLabel;html=1;align=center;verticalAlign=middle;resizable=0;points=[];fontSize=15;" parent="knNs5Az-_bWUm5ND8zl--76" vertex="1" connectable="0">
          <mxGeometry x="0.0352" y="-2" relative="1" as="geometry">
            <mxPoint x="15" y="-2" as="offset" />
          </mxGeometry>
        </mxCell>
        <mxCell id="AXf8cBm9GZdWseRldWIK-43" value="Is success ?" style="rhombus;whiteSpace=wrap;html=1;fontSize=15;" parent="AXf8cBm9GZdWseRldWIK-7" vertex="1">
          <mxGeometry x="610" y="310" width="100" height="90" as="geometry" />
        </mxCell>
        <mxCell id="knNs5Az-_bWUm5ND8zl--115" style="edgeStyle=orthogonalEdgeStyle;rounded=0;orthogonalLoop=1;jettySize=auto;html=1;exitX=1;exitY=0.5;exitDx=0;exitDy=0;entryX=0;entryY=0.5;entryDx=0;entryDy=0;fontSize=15;" parent="AXf8cBm9GZdWseRldWIK-7" source="AXf8cBm9GZdWseRldWIK-48" target="knNs5Az-_bWUm5ND8zl--111" edge="1">
          <mxGeometry relative="1" as="geometry" />
        </mxCell>
        <mxCell id="AXf8cBm9GZdWseRldWIK-48" value="Rollback data from database" style="rounded=1;whiteSpace=wrap;html=1;fontSize=15;" parent="AXf8cBm9GZdWseRldWIK-7" vertex="1">
          <mxGeometry x="780" y="325" width="120" height="60" as="geometry" />
        </mxCell>
        <mxCell id="knNs5Az-_bWUm5ND8zl--1" value="&lt;b&gt;Smart contract&lt;/b&gt;" style="text;html=1;align=center;verticalAlign=middle;whiteSpace=wrap;rounded=0;fontSize=15;" parent="AXf8cBm9GZdWseRldWIK-7" vertex="1">
          <mxGeometry x="230" y="50" width="119" height="30" as="geometry" />
        </mxCell>
        <mxCell id="knNs5Az-_bWUm5ND8zl--2" value="&lt;b&gt;Blockchain&lt;/b&gt;" style="text;html=1;align=center;verticalAlign=middle;whiteSpace=wrap;rounded=0;fontSize=15;" parent="AXf8cBm9GZdWseRldWIK-7" vertex="1">
          <mxGeometry x="810" y="50" width="60" height="30" as="geometry" />
        </mxCell>
        <mxCell id="knNs5Az-_bWUm5ND8zl--3" value="&lt;b&gt;Backend&lt;/b&gt;" style="text;html=1;align=center;verticalAlign=middle;whiteSpace=wrap;rounded=0;fontSize=15;" parent="AXf8cBm9GZdWseRldWIK-7" vertex="1">
          <mxGeometry x="340" y="280" width="60" height="30" as="geometry" />
        </mxCell>
        <mxCell id="knNs5Az-_bWUm5ND8zl--8" style="edgeStyle=orthogonalEdgeStyle;rounded=0;orthogonalLoop=1;jettySize=auto;html=1;exitX=1;exitY=0.5;exitDx=0;exitDy=0;fontSize=15;" parent="AXf8cBm9GZdWseRldWIK-7" source="knNs5Az-_bWUm5ND8zl--5" target="AXf8cBm9GZdWseRldWIK-14" edge="1">
          <mxGeometry relative="1" as="geometry" />
        </mxCell>
        <mxCell id="knNs5Az-_bWUm5ND8zl--5" value="Send transaction to Blockchain" style="rounded=1;whiteSpace=wrap;html=1;fontSize=15;" parent="AXf8cBm9GZdWseRldWIK-7" vertex="1">
          <mxGeometry x="390" y="107.5" width="120" height="60" as="geometry" />
        </mxCell>
        <mxCell id="knNs5Az-_bWUm5ND8zl--9" value="Return data stored" style="rounded=1;whiteSpace=wrap;html=1;fontSize=15;" parent="AXf8cBm9GZdWseRldWIK-7" vertex="1">
          <mxGeometry x="205" y="470" width="150" height="60" as="geometry" />
        </mxCell>
        <mxCell id="knNs5Az-_bWUm5ND8zl--43" value="" style="endArrow=classic;html=1;rounded=0;exitX=0.5;exitY=1;exitDx=0;exitDy=0;entryX=0.5;entryY=0;entryDx=0;entryDy=0;fontSize=15;" parent="AXf8cBm9GZdWseRldWIK-7" source="AXf8cBm9GZdWseRldWIK-24" target="AXf8cBm9GZdWseRldWIK-40" edge="1">
          <mxGeometry width="50" height="50" relative="1" as="geometry">
            <mxPoint x="590" y="410" as="sourcePoint" />
            <mxPoint x="640" y="360" as="targetPoint" />
            <Array as="points">
              <mxPoint x="1009" y="210" />
              <mxPoint x="670" y="210" />
              <mxPoint x="470" y="210" />
            </Array>
          </mxGeometry>
        </mxCell>
        <mxCell id="knNs5Az-_bWUm5ND8zl--75" value="Push notification" style="rounded=1;whiteSpace=wrap;html=1;fontSize=15;" parent="AXf8cBm9GZdWseRldWIK-7" vertex="1">
          <mxGeometry x="780" y="420" width="120" height="60" as="geometry" />
        </mxCell>
        <mxCell id="knNs5Az-_bWUm5ND8zl--111" value="Push notification" style="rounded=1;whiteSpace=wrap;html=1;fontSize=15;" parent="AXf8cBm9GZdWseRldWIK-7" vertex="1">
          <mxGeometry x="960" y="325" width="120" height="60" as="geometry" />
        </mxCell>
        <mxCell id="AXf8cBm9GZdWseRldWIK-32" value="Output" style="swimlane;whiteSpace=wrap;html=1;fontSize=15;" parent="1" vertex="1">
          <mxGeometry x="1360" y="70" width="266" height="580" as="geometry" />
        </mxCell>
        <mxCell id="AXf8cBm9GZdWseRldWIK-38" value="Display temporary data on the interface" style="rounded=1;whiteSpace=wrap;html=1;align=center;fontSize=15;" parent="AXf8cBm9GZdWseRldWIK-32" vertex="1">
          <mxGeometry x="37" y="404" width="207" height="60" as="geometry" />
        </mxCell>
        <mxCell id="knNs5Az-_bWUm5ND8zl--112" value="Show failure notification" style="rounded=1;whiteSpace=wrap;html=1;fontSize=15;" parent="AXf8cBm9GZdWseRldWIK-32" vertex="1">
          <mxGeometry x="80.5" y="150" width="120" height="60" as="geometry" />
        </mxCell>
        <mxCell id="knNs5Az-_bWUm5ND8zl--113" value="Show success notification" style="rounded=1;whiteSpace=wrap;html=1;fontSize=15;" parent="AXf8cBm9GZdWseRldWIK-32" vertex="1">
          <mxGeometry x="70.5" y="274" width="140" height="60" as="geometry" />
        </mxCell>
        <mxCell id="AXf8cBm9GZdWseRldWIK-33" style="edgeStyle=orthogonalEdgeStyle;rounded=0;orthogonalLoop=1;jettySize=auto;html=1;exitX=1;exitY=0.5;exitDx=0;exitDy=0;fontSize=15;" parent="1" source="AXf8cBm9GZdWseRldWIK-1" edge="1">
          <mxGeometry relative="1" as="geometry">
            <Array as="points">
              <mxPoint x="200" y="335" />
              <mxPoint x="200" y="430" />
            </Array>
            <mxPoint x="280" y="430" as="targetPoint" />
          </mxGeometry>
        </mxCell>
        <mxCell id="AXf8cBm9GZdWseRldWIK-37" style="edgeStyle=orthogonalEdgeStyle;rounded=0;orthogonalLoop=1;jettySize=auto;html=1;exitX=1;exitY=0.5;exitDx=0;exitDy=0;fontSize=15;" parent="1" source="AXf8cBm9GZdWseRldWIK-1" edge="1">
          <mxGeometry relative="1" as="geometry">
            <mxPoint x="280" y="210" as="targetPoint" />
            <Array as="points">
              <mxPoint x="200" y="335" />
              <mxPoint x="200" y="210" />
            </Array>
          </mxGeometry>
        </mxCell>
        <mxCell id="knNs5Az-_bWUm5ND8zl--114" style="edgeStyle=orthogonalEdgeStyle;rounded=0;orthogonalLoop=1;jettySize=auto;html=1;exitX=1;exitY=0.5;exitDx=0;exitDy=0;entryX=0;entryY=0.5;entryDx=0;entryDy=0;fontSize=15;" parent="1" source="knNs5Az-_bWUm5ND8zl--75" target="knNs5Az-_bWUm5ND8zl--113" edge="1">
          <mxGeometry relative="1" as="geometry">
            <Array as="points">
              <mxPoint x="1350" y="520" />
              <mxPoint x="1350" y="370" />
            </Array>
          </mxGeometry>
        </mxCell>
        <mxCell id="knNs5Az-_bWUm5ND8zl--116" style="edgeStyle=orthogonalEdgeStyle;rounded=0;orthogonalLoop=1;jettySize=auto;html=1;exitX=1;exitY=0.5;exitDx=0;exitDy=0;entryX=0;entryY=0.5;entryDx=0;entryDy=0;fontSize=15;" parent="1" source="knNs5Az-_bWUm5ND8zl--111" target="knNs5Az-_bWUm5ND8zl--112" edge="1">
          <mxGeometry relative="1" as="geometry">
            <Array as="points">
              <mxPoint x="1340" y="425" />
              <mxPoint x="1340" y="250" />
            </Array>
          </mxGeometry>
        </mxCell>
        <mxCell id="JoXASOHBUNfcQiJYYRIV-2" style="edgeStyle=orthogonalEdgeStyle;rounded=0;orthogonalLoop=1;jettySize=auto;html=1;exitX=1;exitY=0.5;exitDx=0;exitDy=0;entryX=0.5;entryY=1;entryDx=0;entryDy=0;" edge="1" parent="1" source="knNs5Az-_bWUm5ND8zl--9" target="AXf8cBm9GZdWseRldWIK-38">
          <mxGeometry relative="1" as="geometry" />
        </mxCell>
      </root>
    </mxGraphModel>
  </diagram>
</mxfile>
